<?xml version="1.0" standalone="no"?>
<!DOCTYPE svg PUBLIC "-//W3C//DTD SVG 20010904//EN"
 "http://www.w3.org/TR/2001/REC-SVG-20010904/DTD/svg10.dtd">
<svg version="1.0" xmlns="http://www.w3.org/2000/svg"
 width="2400.000000pt" height="3054.000000pt" viewBox="0 0 2400.000000 3054.000000"
 preserveAspectRatio="xMidYMid meet">

<g transform="translate(0.000000,3054.000000) scale(0.100000,-0.100000)"
fill="#000000" stroke="none">
<path d="M430 17540 l0 -13000 11570 0 11570 0 0 13000 0 13000 -11570 0
-11570 0 0 -13000z m7890 11600 c455 -31 973 -115 1432 -231 68 -17 291 -77
496 -135 205 -57 415 -111 465 -119 211 -35 423 -29 542 16 90 33 149 112 196
257 l23 72 57 0 58 0 -5 -82 c-5 -84 -94 -2330 -94 -2374 0 -23 -3 -24 -60
-24 -40 0 -62 4 -64 13 -2 6 -18 72 -36 146 -97 410 -319 790 -637 1091 -296
280 -669 526 -1043 686 -394 169 -928 305 -1390 356 -170 18 -602 15 -785 -6
-723 -83 -1362 -338 -1940 -775 -196 -148 -419 -357 -599 -561 -471 -534 -835
-1235 -1050 -2025 -161 -587 -230 -1128 -230 -1800 -1 -788 100 -1432 328
-2100 461 -1352 1410 -2349 2615 -2745 672 -221 1408 -266 2158 -130 385 70
890 218 1223 359 457 194 885 473 1288 841 l122 111 0 -203 -1 -203 -107 -80
c-560 -416 -972 -675 -1416 -891 -510 -247 -994 -367 -1666 -414 -192 -13
-743 -13 -928 1 -686 49 -1300 205 -1890 478 -884 410 -1576 1002 -2117 1811
-694 1038 -999 2257 -889 3550 59 696 239 1340 550 1970 543 1100 1344 1936
2412 2514 653 354 1389 568 2142 625 164 12 669 13 840 1z m9552 -85 c490 -47
905 -165 1313 -373 279 -143 500 -306 720 -533 360 -372 572 -785 652 -1274
25 -156 25 -560 -1 -730 -46 -303 -142 -575 -287 -812 -330 -539 -1026 -1001
-1884 -1253 -83 -24 -130 -42 -130 -51 0 -10 47 -19 175 -36 1072 -137 1672
-377 2239 -895 481 -441 787 -1029 865 -1663 66 -537 -8 -1052 -213 -1480
-240 -501 -749 -1033 -1234 -1290 -307 -163 -697 -280 -1144 -344 -397 -57
-263 -55 -2740 -58 l-2283 -4 0 54 0 54 138 6 c194 8 311 36 452 107 230 115
401 313 486 564 14 39 34 120 47 180 l22 111 0 4310 c0 4637 3 4348 -51 4552
-51 190 -132 341 -253 466 -183 191 -384 273 -693 284 l-148 6 0 58 0 59 1898
0 c1602 0 1923 -2 2054 -15z m106 -12022 c207 -610 3256 -9313 3308 -9446 233
-589 453 -930 713 -1104 98 -66 302 -126 524 -154 l97 -12 0 -59 0 -58 -1755
0 -1755 0 0 58 0 59 183 6 c283 9 506 45 669 107 127 47 218 174 254 349 22
112 15 335 -15 475 -24 114 -85 330 -111 396 -9 25 -136 401 -280 835 -145
435 -362 1084 -483 1443 l-219 652 -1862 0 -1861 0 -415 -1283 c-477 -1476
-500 -1550 -540 -1712 -87 -356 -96 -657 -24 -867 31 -92 62 -145 121 -203 53
-52 189 -122 288 -149 90 -24 250 -46 333 -46 l72 0 0 -60 0 -60 -1260 0
-1260 0 0 58 0 59 83 12 c257 38 484 137 664 291 220 187 434 539 600 985 33
88 748 2258 1589 4823 l1529 4662 397 0 396 0 20 -57z m-12118 -283 c624 -44
1099 -254 1475 -652 219 -232 378 -531 439 -828 79 -388 27 -850 -140 -1220
-125 -280 -270 -479 -558 -765 -434 -432 -916 -804 -1581 -1220 -13 -8 2 -30
96 -135 170 -190 474 -513 826 -877 175 -180 552 -573 838 -873 286 -300 603
-630 705 -734 196 -200 668 -656 679 -656 13 0 207 337 313 546 127 249 225
457 350 749 324 754 490 1288 544 1755 20 177 15 442 -10 535 -27 99 -80 197
-136 249 -98 91 -296 163 -521 188 l-109 12 0 53 0 53 1445 0 1445 0 0 -53 0
-53 -132 -12 c-625 -57 -985 -299 -1325 -892 -152 -264 -277 -540 -531 -1175
-266 -664 -450 -1075 -640 -1430 -112 -210 -178 -320 -336 -555 -72 -107 -131
-197 -131 -200 0 -3 77 -75 170 -160 94 -84 395 -359 669 -609 495 -452 616
-557 863 -749 575 -446 957 -621 1481 -679 l152 -17 0 -53 0 -53 -1077 0
-1076 0 -271 217 c-523 421 -958 788 -1320 1117 -104 94 -191 171 -192 171 -2
0 -29 -31 -59 -70 -233 -293 -614 -645 -1066 -985 -227 -170 -359 -252 -572
-355 -417 -201 -894 -305 -1403 -305 -769 0 -1431 259 -1953 764 -434 422
-701 944 -782 1536 -17 120 -17 501 0 635 75 601 285 1066 707 1571 348 415
740 771 1219 1104 66 46 122 85 124 87 2 1 -27 35 -65 75 -426 450 -953 1171
-1135 1553 -162 342 -233 649 -232 1015 1 355 65 638 217 955 242 504 639 899
1161 1155 196 96 313 140 509 190 301 76 605 102 926 80z"/>
<path d="M16965 28729 c-158 -13 -389 -53 -572 -100 -87 -23 -168 -43 -180
-46 l-23 -5 0 -2234 0 -2234 458 0 c1036 0 1341 59 1747 338 262 179 389 305
543 537 206 309 313 583 369 945 28 177 25 615 -5 805 -62 393 -190 735 -388
1035 -440 667 -1165 1024 -1949 959z"/>
<path d="M16190 21748 c0 -1287 4 -2073 10 -2143 22 -236 69 -418 138 -525 46
-73 143 -166 238 -231 189 -127 374 -190 689 -235 152 -21 611 -30 801 -15
1019 82 1685 549 2039 1430 88 219 146 445 181 706 24 178 25 578 1 758 -43
325 -116 573 -247 842 -284 585 -737 978 -1404 1219 -279 101 -547 163 -879
203 -105 12 -281 16 -849 20 l-718 5 0 -2034z"/>
<path d="M17155 16070 c-3 -5 -374 -1154 -825 -2552 l-818 -2543 1706 -3 c938
-1 1707 0 1709 1 2 3 -1357 3971 -1712 5000 -36 102 -46 119 -60 97z"/>
<path d="M5068 16340 c-453 -38 -782 -223 -1013 -569 -101 -153 -165 -299
-207 -481 -25 -110 -36 -401 -19 -521 56 -392 273 -888 616 -1409 188 -285
508 -692 807 -1024 l44 -49 144 98 c328 222 575 421 824 665 259 253 378 405
481 610 94 188 156 387 186 600 20 142 18 450 -5 585 -47 284 -165 573 -327
805 -70 99 -232 266 -344 352 -333 259 -740 375 -1187 338z"/>
<path d="M4555 11410 c-585 -423 -968 -872 -1165 -1369 -205 -519 -209 -1126
-9 -1637 231 -591 739 -1112 1346 -1379 401 -177 765 -246 1178 -224 405 21
746 123 1139 340 273 150 544 363 886 697 l130 127 -197 185 c-256 241 -1243
1225 -1544 1540 -438 459 -828 884 -1355 1474 -159 179 -291 325 -294 325 -3
0 -54 -36 -115 -79z"/>
<path d="M16065 3875 c-195 -32 -363 -89 -518 -177 -371 -210 -614 -544 -704
-968 -27 -129 -25 -449 5 -582 128 -576 544 -980 1130 -1099 128 -26 387 -36
518 -20 203 25 358 72 535 163 385 198 648 549 736 983 27 138 25 444 -6 585
-43 200 -100 340 -205 500 -201 307 -533 523 -923 601 -142 28 -436 35 -568
14z m485 -458 c172 -45 305 -120 426 -241 124 -125 200 -259 252 -443 25 -91
27 -112 27 -283 -1 -161 -3 -196 -23 -270 -29 -105 -97 -252 -156 -334 -51
-71 -170 -188 -239 -235 -134 -91 -310 -149 -482 -158 -439 -22 -822 250 -958
682 -92 292 -47 633 118 891 78 121 228 255 360 322 73 36 208 79 290 92 98
15 278 4 385 -23z"/>
<path d="M22515 3875 c-356 -67 -614 -286 -697 -594 -27 -101 -29 -287 -4
-380 73 -269 288 -449 736 -616 69 -26 189 -78 266 -115 231 -112 308 -202
307 -357 0 -211 -181 -337 -483 -336 -207 0 -441 67 -643 183 -48 28 -92 51
-98 53 -16 3 -179 -425 -168 -439 20 -25 243 -126 371 -169 189 -63 335 -87
533 -87 311 -1 541 65 728 209 109 84 204 232 244 383 24 91 24 320 -1 409
-77 278 -292 455 -801 656 -314 124 -437 202 -491 310 -24 50 -26 64 -22 134
15 261 255 383 611 310 111 -22 254 -72 361 -126 37 -19 70 -32 72 -30 7 7
154 411 154 423 0 13 -129 75 -230 109 -151 52 -301 76 -490 81 -128 2 -197
-1 -255 -11z"/>
<path d="M7582 3833 c-17 -33 -1171 -2510 -1258 -2700 l-33 -73 258 0 258 0
121 278 121 277 597 0 596 0 122 -275 123 -275 261 -3 c144 -1 262 1 262 6 0
4 -292 635 -649 1402 l-649 1395 -56 3 c-55 3 -55 3 -74 -35z m273 -1343 c113
-255 205 -467 205 -472 0 -4 -187 -8 -415 -8 -228 0 -415 3 -415 7 0 10 413
943 417 940 1 -2 95 -212 208 -467z"/>
<path d="M620 2450 l0 -1390 245 0 245 0 0 405 0 405 219 0 c120 0 245 3 277
6 l59 6 294 -411 295 -411 288 0 289 0 -59 77 c-540 714 -654 867 -646 870 6
2 38 20 73 41 282 166 421 433 421 807 0 322 -110 580 -320 753 -77 63 -255
153 -360 182 -165 45 -234 50 -792 50 l-528 0 0 -1390z m1115 911 c193 -64
290 -160 335 -335 37 -146 20 -338 -41 -457 -33 -66 -121 -152 -192 -188 -122
-61 -193 -72 -472 -74 l-250 -2 -3 543 -2 544 277 -4 c256 -4 284 -6 348 -27z"/>
<path d="M3740 2450 l0 -1390 905 0 905 0 0 225 0 225 -657 2 -658 3 0 330 0
330 598 3 597 2 0 215 0 215 -597 2 -598 3 -3 388 -2 387 660 0 660 0 0 225 0
225 -905 0 -905 0 0 -1390z"/>
<path d="M9870 2450 l0 -1390 905 0 905 0 0 225 0 225 -660 0 -660 0 0 1165 0
1165 -245 0 -245 0 0 -1390z"/>
<path d="M11910 3615 l0 -225 465 0 465 0 0 -1165 0 -1165 245 0 245 0 0 1165
0 1165 460 0 460 0 0 225 0 225 -1170 0 -1170 0 0 -225z"/>
<path d="M18800 2450 l0 -1390 245 0 245 0 0 400 c0 312 3 402 13 405 6 2 133
5 281 7 l269 3 290 -403 c159 -222 295 -406 301 -408 6 -2 136 -3 289 -2 l279
3 -351 464 c-193 255 -351 466 -351 470 0 3 35 26 77 51 142 83 274 230 338
374 88 199 106 496 44 731 -76 291 -277 505 -575 611 -190 68 -258 74 -860 74
l-534 0 0 -1390z m1058 924 c216 -43 357 -171 403 -364 16 -71 16 -239 0 -310
-36 -149 -125 -265 -253 -325 -120 -57 -189 -67 -468 -69 l-245 -1 -3 543 -2
542 245 0 c183 0 266 -4 323 -16z"/>
</g>
</svg>
